<?xml version="1.0" encoding="utf-8"?>
<!-- Generator: Adobe Illustrator 18.0.0, SVG Export Plug-In . SVG Version: 6.00 Build 0)  -->
<!DOCTYPE svg PUBLIC "-//W3C//DTD SVG 1.1//EN" "http://www.w3.org/Graphics/SVG/1.1/DTD/svg11.dtd">
<svg version="1.1" id="Layer_1" xmlns="http://www.w3.org/2000/svg" xmlns:xlink="http://www.w3.org/1999/xlink" x="0px" y="0px"
	 viewBox="0 0 32 32" enable-background="new 0 0 32 32" xml:space="preserve">
<path fill-rule="evenodd" clip-rule="evenodd" fill="#E54D3C" d="M15.9,31.3c-8.5,0-15.4-6.9-15.4-15.4c0-8.5,6.9-15.4,15.4-15.4
	c8.5,0,15.4,6.9,15.4,15.4C31.3,24.4,24.4,31.3,15.9,31.3z M15.9,4.4C9.6,4.4,4.4,9.5,4.4,15.9c0,6.4,5.2,11.5,11.5,11.5
	s11.5-5.2,11.5-11.5C27.5,9.5,22.3,4.4,15.9,4.4z M15.9,19.7c-1.1,0-1.9-0.9-1.9-1.9c0,0-1.9-5.6-1.9-7.7c0-2.1,1.7-3.8,3.8-3.8
	s3.8,1.7,3.8,3.8l-1.9,7.7C17.9,18.9,17,19.7,15.9,19.7z M15.9,21.7c1.1,0,1.9,0.9,1.9,1.9c0,1.1-0.9,1.9-1.9,1.9S14,24.7,14,23.6
	C14,22.5,14.9,21.7,15.9,21.7z"/>
</svg>
