<?xml version="1.0" encoding="utf-8"?>
<!-- Generator: Adobe Illustrator 18.0.0, SVG Export Plug-In . SVG Version: 6.00 Build 0)  -->
<!DOCTYPE svg PUBLIC "-//W3C//DTD SVG 1.1//EN" "http://www.w3.org/Graphics/SVG/1.1/DTD/svg11.dtd">
<svg version="1.1" id="Layer_1" xmlns="http://www.w3.org/2000/svg" xmlns:xlink="http://www.w3.org/1999/xlink" x="0px" y="0px"
	 viewBox="0 0 32 28" enable-background="new 0 0 32 28" xml:space="preserve">
<path fill-rule="evenodd" clip-rule="evenodd" fill="#26AE5E" d="M29.6,13.8L16,28L2.3,13.8c-3.1-3.1-3.1-8.3,0-11.4
	c3.1-3.1,8.2-3.1,11.3,0L16,5.2l2.3-2.9c3.1-3.1,8.2-3.1,11.3,0C32.8,5.5,32.8,10.6,29.6,13.8z M21.2,5.2L16,10.9l-5.2-5.7
	c-1.6-1.6-4.1-1.6-5.7,0c-1.6,1.6-1.6,4.1,0,5.7L16,22.3l10.8-11.4c1.6-1.6,1.6-4.1,0-5.7C25.2,3.6,22.7,3.6,21.2,5.2z"/>
</svg>
