<?xml version="1.0" encoding="utf-8"?>
<!DOCTYPE svg PUBLIC "-//W3C//DTD SVG 1.1//EN" "http://www.w3.org/Graphics/SVG/1.1/DTD/svg11.dtd">
<svg version="1.1" id="Layer_1" xmlns="http://www.w3.org/2000/svg" xmlns:xlink="http://www.w3.org/1999/xlink" x="0px" y="0px"
	 viewBox="0 0 280.2 224.5" enable-background="new 0 0 280.2 224.5" xml:space="preserve">
<path fill-rule="evenodd" clip-rule="evenodd" fill="#E7E7E7" d="M200.4,62.2c50,0.6,79.1,31.3,46,73.2
	c-15.2,19.3-40.9,38.4-75.2,50.7c-1.6,0.6-3.3,1.1-4.9,1.7c-3.2,1-6.4,2-9.6,3c-7.4,2.1-14.6,3.9-21.6,5.3
	c-7.5,1.5-14.7,2.7-21.7,3.5c-5,0.5-9.8,0.8-14.5,0.9c-31.9,0.8-55.8-7.9-63.7-26.6c-9.4-22.3,9.7-53.4,47.8-77
	C54.8,108.3,3.5,135,1.3,173.3v4.8c0.2,3.9,1,7.8,2.3,11.9c8.1,25.8,46.5,37.9,95.3,33.6c4.7-0.4,9.6-1,14.5-1.7
	c7.1-1,14.3-2.5,21.7-4.2c7.1-1.7,14.3-3.7,21.6-6c1.6-0.6,3.2-1,4.8-1.6c3.3-1,6.5-2.2,9.7-3.4c42.3-15.4,73.7-35.8,92.1-59.3
	c10.5-13.4,15.9-26,16.9-37V102C277.3,74.1,244.7,57.7,200.4,62.2z M167.9,48.4c1.2,0,2.3-0.2,3.3-0.4c7.1-1.8,10.5-9.3,10.9-18.3
	c0.3-9.5-3-17.4-10.9-18.5c-0.6-0.2-1.4-0.2-2.1-0.2c-6.2,0-10.2,3.7-12.4,9.2c-1,2.8-1.7,6-1.8,9.5c-0.2,4.1,0.4,8,1.8,11.1
	C158.7,45.4,162.4,48.4,167.9,48.4z M167.8,51.5c-3.1,0-5.8,0.3-8.1,0.9l0.6,0.9l1.2,2.2l1,2.3l0.8,2.3l0.6,2.4l0.4,2.4l0.2,2.5
	l0.1,2.4v2.6l-0.2,2.5l-0.2,2.5l-0.3,2.5l-0.3,2.5l-0.5,2.5l-0.5,2.5l-0.5,2.4l-0.6,2.4l-0.5,2.3l-0.6,2.3l-0.6,2.2l-0.6,2.1l-0.5,2
	l-0.5,1.9l-0.2,1.2l-0.3,1.4l-0.3,1.5l-0.2,1.5l-0.3,1.6l-0.2,1.4v0.3l-0.3,1.8l-0.3,1.8l-0.2,1.9l-0.3,1.9l-0.2,1.9L155,125l-0.2,2
	l-0.3,1.9l-0.2,2l-0.2,2l-0.2,2v0.1c0.5,5.8,0.9,10.7,1.1,13.5c0.2,3.2,0.9,5.6,1.9,7.1c1.5,2.3,4,3.1,7.6,3.5
	c3-0.3,5.2-0.9,6.9-2.5c1.6-1.5,2.6-4,3.2-8c1.3-8.3,5-35.5,8.2-47.2c4.6-16.8,15.6-47.4-11.4-49.7C170.1,51.5,169,51.5,167.8,51.5z
	 M134.9,42.9h0.2c10.5-0.1,15.4-9.7,15.4-21.4c0-11.7-4.9-21.4-15.4-21.5h-0.2c-10.6,0-15.5,9.7-15.5,21.5
	C119.4,33.3,124.3,42.9,134.9,42.9z M113.4,92.5c1,4.1,1.9,7.9,2.7,11.3c3.3,13.4,6.5,44.7,7.7,54.1c1.1,9.5,4.5,11.5,11.3,12.2
	c6.7-0.6,10.1-2.7,11.2-12.2c1.1-9.4,4.4-40.6,7.6-54.1c0.8-3.4,1.8-7.2,2.8-11.3c3-12.3,5.4-26.8,0-36.1c-3.5-6-10.1-9.9-21.6-9.9
	c-11.7,0-18.4,3.9-21.7,9.9C108,65.8,110.4,80.2,113.4,92.5z M98.9,48c1,0.2,2.1,0.4,3.3,0.4c5.6,0,9.2-3,11.2-7.6
	c1.3-3.1,1.9-7,1.8-11.1c-0.2-3.5-0.7-6.7-1.8-9.5c-2.2-5.5-6.3-9.2-12.4-9.2c-0.7,0-1.4,0-2.1,0.2c-7.8,1.1-11.2,9-10.9,18.5
	C88.3,38.6,91.8,46.2,98.9,48z M95.7,148.6c0.6,4,1.6,6.5,3.2,8c1.7,1.6,3.9,2.2,6.9,2.5c3.5-0.3,6-1.1,7.6-3.5
	c1-1.5,1.6-3.9,1.9-7.1c0.2-2.8,0.6-7.7,1.1-13.4V135l-0.2-2l-0.2-2l-0.3-2l-0.2-1.9l-0.2-2l-0.3-1.9l-0.2-1.9l-0.3-1.9l-0.3-1.9
	l-0.2-1.8l-0.3-1.8v-0.2l-0.2-1.4l-0.3-1.6l-0.3-1.5l-0.2-1.5l-0.3-1.4l-0.3-1.2l-0.4-1.9l-0.6-2l-0.5-2.1l-0.6-2.2l-0.6-2.3
	l-0.6-2.3l-0.5-2.4l-0.6-2.4l-0.5-2.5l-0.4-2.5l-0.3-2.5l-0.3-2.5l-0.2-2.5l-0.1-2.6v-2.5l0.1-2.4l0.2-2.5l0.4-2.4l0.6-2.4l0.7-2.3
	l1-2.3l1.2-2.2l0.6-0.9c-2.3-0.6-5.1-0.9-8.1-0.9c-1.2,0-2.3,0-3.5,0.2c-27,2.3-16,32.9-11.4,49.7C90.7,113.1,94.4,140.3,95.7,148.6
	z"/>
</svg>
