<?xml version="1.0" encoding="utf-8"?>
<!DOCTYPE svg PUBLIC "-//W3C//DTD SVG 1.1//EN" "http://www.w3.org/Graphics/SVG/1.1/DTD/svg11.dtd">
<svg version="1.1" xmlns="http://www.w3.org/2000/svg" xmlns:xlink="http://www.w3.org/1999/xlink" x="0px" y="0px"
	 viewBox="0 0 128.9 45" enable-background="new 0 0 128.9 45" xml:space="preserve">
<g id="Layer_2">
	<path fill="#a09f9f" d="M17.4,39c-0.9,2-2.3,3.5-4.2,4.5c-1.7,1-3.6,1.4-5.6,1.4c-1.6,0-3.1-0.3-4.7-0.8C1,43.5,0,42.5,0,41.4
		c0-0.3,0.1-0.6,0.2-0.9l3.6-8.2c1-2.1,2.7-4.2,5.2-6c2.2-1.7,4.6-3,7.4-4L24,5.1C24,5,24.1,4.9,24.1,4.7c0-0.4-0.2-0.7-0.6-1.1
		c-0.4-0.3-0.8-0.5-1.2-0.5h-9.6c-0.9,0-1.4-0.5-1.4-1.6c0-1.1,0.5-1.6,1.5-1.6h13.5c4.4,0,6.7,1,6.7,3c0,0.6-0.2,1.3-0.5,2.1
		L17.4,39z M8.4,40.2L14,27.6c-0.9,0.2-2,0.8-3.2,1.8c-1.3,1-2.1,2-2.5,2.9l-3.5,7.9c0,0-0.1,0.2-0.1,0.4c0,0.2,0.6,0.3,1.8,0.3
		C7.5,41,8.1,40.7,8.4,40.2z"/>
	<path fill="#a09f9f" d="M53,7.7c-1.1,0.8-2.2,0.4-2.9-0.4l-8.2,18.5c-1.1,2.4-3.1,4.4-6,5.8c-0.8,0.4-1.4,0.6-1.9,0.6
		c-0.4,0-0.6-0.2-0.6-0.5c0-0.2,0.1-0.4,0.2-0.6L45.1,5.1c0.3-0.8,0.5-1.5,0.5-2.1c0-2-2.2-3-6.7-3H25.5c-1,0-1.5,0.5-1.5,1.6
		c0,1,0.4,1.6,1.3,1.6h9.6c2.8,0.1,1.8,1.8,1.8,1.9L26,29.1c-0.6,1.3-0.9,2.5-0.9,3.5c0,2.3,1.3,3.4,3.8,3.4c4.7,0,9.9-2.5,15.4-7.5
		c5-4.5,8.6-9.2,10.8-14.2l4-9C56.9,5.7,54.8,6.4,53,7.7z"/>
	<path fill="#a09f9f" d="M74.6,27.7c-0.9,2.1-3,4-6.3,5.8c-3,1.6-5.6,2.4-7.8,2.4h-4.2c-4,0-6-1.3-6-3.9c0-1.4,0.5-3.2,1.6-5.4
		l1.8-4c0.9-2,2.1-3.7,3.6-5c1.7-1.5,3.5-2.2,5.5-2.2h5.5c2.4,0,3.5,0.9,3.5,2.7c0,1.1-0.6,3.1-1.9,6c-0.9,2.1-2.8,3.2-5.5,3.2h-5.5
		l-1.3,2.9c-0.3,0.6-0.4,1.1-0.4,1.6c0,0.6,0.2,0.8,0.7,0.8h1.6c3.6,0,7-1.1,10.2-3.2c1.9-1.3,3.1-2.6,3.7-3.8L74.6,27.7L74.6,27.7z
		 M62.5,24.2l2.1-4.5c0-0.1,0.1-0.3,0.1-0.3c0-0.4-0.3-0.7-0.9-0.7c-0.8,0-1.3,0.4-1.6,1.1L60,24.2H62.5z"/>
	<path fill="#a09f9f" d="M95.7,27.7c-1,2.1-3,4-6.2,5.8c-3,1.7-5.8,2.6-8.4,2.6c-1.2,0-1.9-0.6-2.1-1.7c-1.3,1.2-2.8,1.8-4.5,1.8
		c-3.9,0-5.9-1.3-5.9-4c0-1.4,0.5-3.2,1.5-5.5l0.8-1.7c1.1-2.6,2.6-4.7,4.5-6.4c2.2-2,4.5-3.1,7-3.1c1.8,0,3.2,0.6,4.2,1.8l0.5-1.1
		h5.1l-2.4,5.5c-0.7,1.7-1.9,4.3-3.4,7.7c-0.1,0.3-0.2,0.6-0.2,0.9c0,0.5,0.3,0.7,0.8,0.7c1.1,0,2.5-0.6,4.1-1.8
		c1.6-1.2,2.7-2.3,3.2-3.4L95.7,27.7z M78.1,30.6l4.8-10.9c0.1-0.1,0.1-0.3,0.1-0.3c0-0.4-0.3-0.7-0.9-0.7c-0.8,0-1.4,0.4-1.7,1.1
		l-4.7,10.5c-0.3,0.6-0.4,1.1-0.4,1.6c0,0.5,0.2,0.8,0.7,0.8C76.8,32.7,77.5,32,78.1,30.6z"/>
	<path fill="#a09f9f" d="M117.2,27.7c-0.9,2-3,3.9-6.2,5.7c-3,1.7-5.8,2.6-8.4,2.6c-2.3,0-3.5-1.1-3.5-3.2c0-0.7,0.2-1.4,0.5-2.2
		l3.9-8.7c0-0.1,0.1-0.2,0.1-0.3c0-0.3-0.1-0.5-0.4-0.7c-0.3-0.2-0.6-0.3-0.9-0.3c-0.4,0-0.9,0.5-1.3,1.4c-1.8,4-4.7,7.2-8.8,9.7
		c-1.2,0.7-2.2,0.6-3.1,0.7L97.3,14l11.9,6.7c0.9,0.5,1.3,1.3,1.3,2.4c0,0.3-0.1,0.5-0.2,0.7l-2.4,5.5c-0.1,0.3-0.2,0.6-0.2,0.9
		c0,0.5,0.3,0.7,0.8,0.7c1.1,0,2.5-0.6,4.1-1.8c1.6-1.2,2.7-2.3,3.2-3.4L117.2,27.7z"/>
	<path fill="#a09f9f" d="M119,30.5l5.3-11.8h2.2l1.2-2.7h-2.2l3.4-7.6h-8.1l-3.4,7.6h-2.1l-1.2,2.7h2.1L111,30.5
		c-0.3,0.8-0.5,1.5-0.5,2.2c0,1,0.3,1.8,0.9,2.4c0.6,0.6,1.5,0.9,2.6,0.9c2.6,0,5.4-0.9,8.4-2.6c3.2-1.7,5.2-3.6,6.2-5.7
		c0,0-1.3,1.7-3.5,2.9C122,32.4,118.1,32.6,119,30.5z"/>
	<path fill="#a09f9f" d="M50.1,7.3c0,0,1.3-3.6,4.4-4c0,0,6.6-1,16.8,0.9c0,0,4.1,0.7,8.5,2c0,0,5.6,1.4,12.9,0c0,0,5.6-1.5,8.4,1.2
		c3,3,5.4,6.8,8.6,7.2c0,0-2.7,0.5-6.3-2.9c0,0-1.6-1.7-3.4-2.7c-1.7-1-4-1.1-6-0.6c0,0-6.1,2.2-10.9,1.8c0,0-5.5-0.4-10-1.3
		c0,0-8.5-2-13.2,1.7c0,0-3.4,2.5-6.7,7.2C50,22.5,50.1,7.3,50.1,7.3z"/>
	<path fill="#a09f9f" d="M20.2,26.4l38.3,0.8l1.1-3.1c0,0-26.6-3.9-37.3-3.5L20.2,26.4z"/>
	<polygon fill="#a09f9f" points="29.9,10.8 33.7,2.2 32.4,2.4 	"/>
	<path fill="#a09f9f" d="M128.2,18.7H120c0,0-0.1,0-0.1,0c0.2-1,0-2-0.6-2.7h8.8c0.9,0,1.3,0.5,1.3,1.4
		C129.4,18.2,129,18.7,128.2,18.7z"/>
	<path fill="#a09f9f" d="M123.4,20.7c0,0,0.6-2,3.4-2V18l-4.5,0.2l0.3,2.2L123.4,20.7z"/>
</g>
</svg>
