<?xml version="1.0" encoding="utf-8"?>
<!DOCTYPE svg PUBLIC "-//W3C//DTD SVG 1.1//EN" "http://www.w3.org/Graphics/SVG/1.1/DTD/svg11.dtd">
<svg version="1.1" id="Layer_1" xmlns="http://www.w3.org/2000/svg" xmlns:xlink="http://www.w3.org/1999/xlink" x="0px" y="0px"
	 viewBox="0 0 1999.7 1870.8" enable-background="new 0 0 1999.7 1870.8" xml:space="preserve">
<g>
	<g>
		<path fill="#B4382B" d="M1985.9,543.8c-1.6,124.4-39.4,236-118.2,333c-20.7,25.5-44,48.7-66.3,72.8
			c-139,150.1-278.2,300.1-417.3,450.1c-95.6,103.1-191.3,206.2-286.9,309.3c-31.6,34.1-63.2,68.2-94.7,102.3
			c-2.6,2.8-3.7,2.9-6.3,0c-167-180.3-334.1-360.5-501.2-540.7C380.1,1146.8,265,1023,150.3,899C86.5,830,45.3,749,25,657.3
			c-9.9-45-14.1-90.5-11.7-136.5c7.2-137.9,58.2-256.6,157.2-353.4c69.1-67.6,151.7-110.7,246.8-129c72-13.8,143.3-10.2,214.3,8
			c64.9,16.7,124.8,43.6,178.4,84c14.8,11.1,28.8,23.2,42.4,35.7c18.9,17.4,33.5,38.4,49.5,58.1c33.8,41.6,67.3,83.5,100.9,125.4
			c2.4,3,3.5,3.7,6.2,0.1c43.9-55.7,87.8-111.5,132.2-166.9c12.6-15.7,28.3-28.7,43.9-41.5c67.2-55.5,143.6-91.6,229.7-104.9
			c139.3-21.6,265.3,11.3,376,98.5c95.4,75.2,155.1,173.7,182.1,292C1982.1,467.6,1985.8,503.5,1985.9,543.8z"/>
	</g>
</g>
</svg>
