<?xml version="1.0" encoding="utf-8"?>
<!DOCTYPE svg PUBLIC "-//W3C//DTD SVG 1.1//EN" "http://www.w3.org/Graphics/SVG/1.1/DTD/svg11.dtd">
<svg version="1.1" id="Layer_1" xmlns="http://www.w3.org/2000/svg" xmlns:xlink="http://www.w3.org/1999/xlink" x="0px" y="0px"
	 viewBox="0 0 2000 1871" enable-background="new 0 0 2000 1871" xml:space="preserve">
<path fill="#B83A2C" d="M1840.5,905.8l-842,908.1l-842-908.1
	c-192.8-200.6-192.8-525.9,0-726.4c192.8-200.6,505.5-200.6,698.3,0l143.7,181.6l143.7-181.6c192.8-200.6,505.5-200.6,698.3,0
	C2033.3,379.9,2033.3,705.2,1840.5,905.8z M1316.7,360.9L998.4,724.2L680.1,360.9c-96.4-100.3-252.7-100.3-349.2,0
	c-96.4,100.3-96.4,262.9,0,363.3l667.5,726.4l667.4-726.4c96.4-100.3,96.4-263,0-363.3C1569.5,260.6,1413.1,260.6,1316.7,360.9z"/>
</svg>
