<?xml version="1.0" encoding="utf-8"?>
<!-- Generator: Adobe Illustrator 18.0.0, SVG Export Plug-In . SVG Version: 6.00 Build 0)  -->
<!DOCTYPE svg PUBLIC "-//W3C//DTD SVG 1.1//EN" "http://www.w3.org/Graphics/SVG/1.1/DTD/svg11.dtd">
<svg version="1.1" id="Layer_1" xmlns="http://www.w3.org/2000/svg" xmlns:xlink="http://www.w3.org/1999/xlink" x="0px" y="0px"
	 viewBox="0 0 612 792" enable-background="new 0 0 612 792" xml:space="preserve">
<g>
	<path fill="#BE3B30" d="M448.2,96.5h-292C-9.1,94.4,0,248,0,248v447.1l156.2-148.9h314.2c85-4.4,143.5-71.9,141.6-155.8v-39.6
		L448.2,96.5z"/>
	<path fill="#9A2D27" d="M500.1,177.5c-3.6,26.5-11.3,52.7-25.1,77.7c-1.1,1.8-2.5,4-4,5.8c1.8,4,4,8,6.5,11.3
		c3.6,4.4,4.4,10.5,0,14.9c-0.7,0.7-1.5,1.1-2.2,1.8l117,181.6c12.7-23.2,19.6-50.5,18.9-80.3v-39.6L500.1,177.5z"/>
	<path fill="#E44E41" d="M589.5,350.8h22.2L448.6,96.2l-0.4,98.1C446.4,278.5,504.9,346.1,589.5,350.8z"/>
	<polygon fill="#B5352E" points="0,295.9 0,695.5 156.2,546.5 158,546.5 	"/>
</g>
</svg>
