<?xml version="1.0" encoding="utf-8"?>
<!DOCTYPE svg PUBLIC "-//W3C//DTD SVG 1.1//EN" "http://www.w3.org/Graphics/SVG/1.1/DTD/svg11.dtd">
<svg version="1.1" id="Layer_1" xmlns="http://www.w3.org/2000/svg" xmlns:xlink="http://www.w3.org/1999/xlink" x="0px" y="0px"
	 viewBox="0 0 168.4 164.9" enable-background="new 0 0 168.4 164.9" xml:space="preserve">
<g>
	<path fill="#2EAC62" d="M123.4,0L43,0C-2.5-0.6,0,41.7,0,41.7v123.1l43-41h86.5c23.4-1.2,39.5-19.8,39-42.9V70L123.4,0z"/>
	<path fill="#2A9553" d="M137.7,22.3c-1,7.4-3.1,14.5-6.9,21.4c-0.1,0.2-0.3,0.5-0.5,0.7c0.7,0.6,1.3,1.3,1.8,2.1
		c0.7,1,0.8,2.5,0.5,3.6c-0.3,1.1-1,2-1.9,2.6l32.4,50.3c3.5-6.4,5.4-13.9,5.2-22.1V70L137.7,22.3z"/>
	<path fill="#53B972" d="M162.3,70l6.1,0L123.5-0.1l-0.1,27C122.9,50.1,139,68.7,162.3,70z"/>
	<polygon fill="#2BA25A" points="0,54.9 0,164.9 43,123.9 43.5,123.9 	"/>
</g>
<g>
	<g>
		<path fill="#2A9553" d="M33.5,31.2v13.9h8.4v1.1h-9.6v-15H33.5z"/>
		<path fill="#2A9553" d="M56.1,46.2l-1.6-3.7h-9l-1.6,3.7h-1.2l6.7-15h1.3l6.7,15H56.1z M54,41.4l-4-9.1l-4,9.1H54z"/>
		<path fill="#2A9553" d="M61,32.2h-5.4v-1h12v1h-5.4v13.9H61V32.2z"/>
		<path fill="#2A9553" d="M82.9,31.2l-6.2,15h-1.2l-6.2-15h1.2l5.5,13.7l5.5-13.7H82.9z"/>
		<path fill="#2A9553" d="M84.9,46.2v-15h1.1v15H84.9z"/>
		<path fill="#2A9553" d="M101.3,46.2l-1.6-3.7h-9l-1.6,3.7h-1.2l6.7-15h1.3l6.7,15H101.3z M99.2,41.4l-4-9.1l-4,9.1H99.2z"/>
		<path fill="#2A9553" d="M105,31.2l10.1,12.4V31.2h1.1v15h-0.5l-10.1-12.4v12.4h-1.2v-15H105z"/>
	</g>
	<g>
		<path fill="#2A9553" d="M49.1,55.7L43,63.8h-0.7l-6-8.2v13.6h-3.5V50.5h4.1l5.9,8.1l5.9-8.1h4v18.7h-3.5V55.7z"/>
		<path fill="#2A9553" d="M72.4,50.5v10.7c0,5.5-3.4,8.4-8.1,8.4c-4.5,0-8.3-2.7-8.3-8.4V50.5h3.5v10.7c0,3.4,1.9,5.2,4.8,5.2
			s4.6-2,4.6-5.2V50.5H72.4z"/>
		<path fill="#2A9553" d="M87.4,55C86.7,54,85,53,82.9,53c-2.6,0-3.9,1.1-3.9,2.5c0,1.6,1.9,2.1,4.2,2.4c3.9,0.5,7.6,1.5,7.6,6
			c0,4.2-3.7,6-7.9,6c-3.8,0-6.8-1.2-8.2-4.6l2.9-1.5c0.8,2.1,3,3,5.3,3c2.2,0,4.3-0.8,4.3-2.8c0-1.8-1.8-2.5-4.3-2.8
			c-3.8-0.5-7.4-1.5-7.4-5.7c0-3.9,3.8-5.4,7.3-5.5c2.9,0,5.9,0.8,7.4,3.7L87.4,55z"/>
		<path fill="#2A9553" d="M93.5,69.3V50.5H97v18.7H93.5z"/>
		<path fill="#2A9553" d="M116.9,66.9c-1.9,1.9-4.4,2.8-7.1,2.8c-7,0-9.9-4.8-9.9-9.7c0-4.9,3.2-9.9,9.9-9.9c2.5,0,5,1,6.9,2.9
			l-2.4,2.3c-1.2-1.2-2.9-1.8-4.5-1.8c-4.5,0-6.5,3.4-6.5,6.5c0,3.1,1.8,6.3,6.5,6.3c1.6,0,3.5-0.7,4.7-1.9L116.9,66.9z"/>
	</g>
	<g>
		<path fill="#2A9553" d="M41.5,75.3c-0.5-0.8-1.7-1.5-3.2-1.5c-1.9,0-2.8,0.8-2.8,1.8c0,1.2,1.4,1.5,3,1.7c2.8,0.3,5.4,1.1,5.4,4.2
			c0,3-2.6,4.2-5.6,4.2c-2.7,0-4.8-0.8-5.8-3.3l2.1-1.1c0.6,1.5,2.1,2.1,3.7,2.1c1.6,0,3.1-0.6,3.1-2c0-1.3-1.3-1.8-3.1-2
			c-2.7-0.3-5.2-1-5.2-4c0-2.7,2.7-3.9,5.2-3.9c2.1,0,4.2,0.6,5.2,2.6L41.5,75.3z"/>
		<path fill="#2A9553" d="M57.6,72.1v7.6c0,3.9-2.4,6-5.8,6c-3.2,0-5.9-1.9-5.9-6v-7.6h2.5v7.6c0,2.4,1.4,3.7,3.4,3.7
			s3.3-1.4,3.3-3.7v-7.6H57.6z"/>
		<path fill="#2A9553" d="M71.6,75.7l-4.3,5.8h-0.5l-4.2-5.8v9.7h-2.5V72.1h2.9l4.2,5.7l4.2-5.7h2.9v13.3h-2.5V75.7z"/>
		<path fill="#2A9553" d="M88.1,75.7l-4.3,5.8h-0.5L79,75.7v9.7h-2.5V72.1h2.9l4.2,5.7l4.2-5.7h2.9v13.3h-2.5V75.7z"/>
		<path fill="#2A9553" d="M102.9,85.4H93c0-4.4,0-8.9,0-13.3h10v2.4h-7.5v3.1h7.2v2.3h-7.2v3h7.5V85.4z"/>
		<path fill="#2A9553" d="M116.7,85.4h-3l-3.9-4.5h-2.4v4.5h-2.5V72c2.1,0,4.2,0,6.3,0c3.1,0,4.8,2.1,4.8,4.4c0,1.8-0.8,3.7-3.4,4.2
			l4,4.5V85.4z M107.4,74.4v4.3h3.8c1.6,0,2.3-1.1,2.3-2.1s-0.7-2.1-2.3-2.1H107.4z"/>
	</g>
	<g>
		<path fill="#2A9553" d="M89.3,90.3c0-1.4,1.4-1.9,2.6-1.9c1.2,0,2.6,0.5,2.6,2c0,1.4-1.4,1.9-2.6,1.9c-1,0-2.1,0.2-2.1,1.4v1h4.7
			v0.5h-5.2v-1.5c0-1.5,1.4-1.9,2.6-1.9c0.9,0,2.1-0.3,2.1-1.5c0-1.2-1.2-1.5-2.1-1.5c-0.9,0-2.1,0.3-2.1,1.4H89.3z"/>
		<path fill="#2A9553" d="M97.3,91.1c0-3.6,5.2-3.5,5.2,0v1.6c0,3.5-5.2,3.6-5.2,0V91.1z M97.8,92.7c0,2.9,4.2,2.9,4.2,0v-1.6
			c0-2.9-4.2-2.9-4.2,0V92.7z"/>
		<path fill="#2A9553" d="M104.9,94.8h1.1V89h-1.1v-0.5h1.7v6.3h1.1v0.5h-2.8V94.8z"/>
		<path fill="#2A9553" d="M114.8,88.5v4.7h0.9v0.5h-0.9v1.5h-0.5v-1.5h-4.2l-0.1-0.6l3.9-4.6H114.8z M114.3,88.9l-3.7,4.3h3.7V88.9z
			"/>
	</g>
</g>
<g>
	<path fill="#ECF0F1" d="M32.7,30.5v13.9h8.4v1.1h-9.6v-15H32.7z"/>
	<path fill="#ECF0F1" d="M55.2,45.5l-1.6-3.7h-9L43,45.5h-1.2l6.7-15h1.3l6.7,15H55.2z M53.1,40.8l-4-9.1l-4,9.1H53.1z"/>
	<path fill="#ECF0F1" d="M60.2,31.6h-5.4v-1h12v1h-5.4v14h-1.2V31.6z"/>
	<path fill="#ECF0F1" d="M82.1,30.5l-6.2,15h-1.2l-6.2-15h1.2l5.6,13.7l5.5-13.7H82.1z"/>
	<path fill="#ECF0F1" d="M84.1,45.5v-15h1.1v15H84.1z"/>
	<path fill="#ECF0F1" d="M100.5,45.5l-1.7-3.7h-9l-1.6,3.7H87l6.7-15H95l6.7,15H100.5z M98.4,40.8l-4-9.1l-4,9.1H98.4z"/>
	<path fill="#ECF0F1" d="M104.2,30.5l10.1,12.4V30.5h1.1v15h-0.5l-10.1-12.4v12.4h-1.2v-15H104.2z"/>
</g>
<g>
	<path fill="#ECF0F1" d="M47.8,54.1l-6.1,8.1H41l-6-8.2v13.6h-3.5V49h4.1l5.9,8.1l5.9-8.1h4v18.7h-3.5V54.1z"/>
	<path fill="#ECF0F1" d="M71.1,49v10.7c0,5.5-3.4,8.4-8.1,8.4c-4.5,0-8.3-2.7-8.3-8.4V49h3.5v10.7c0,3.4,1.9,5.2,4.8,5.2
		c2.9,0,4.6-2,4.6-5.2V49H71.1z"/>
	<path fill="#ECF0F1" d="M86.1,53.5c-0.6-1.1-2.4-2.1-4.4-2.1c-2.6,0-3.9,1.1-3.9,2.5c0,1.6,1.9,2.1,4.2,2.4c3.9,0.5,7.6,1.5,7.6,6
		c0,4.2-3.7,6-7.9,6c-3.8,0-6.8-1.2-8.2-4.6l2.9-1.5c0.8,2.1,3,3,5.3,3c2.2,0,4.3-0.8,4.3-2.8c0-1.8-1.8-2.5-4.3-2.8
		c-3.8-0.5-7.4-1.5-7.4-5.7c0-3.9,3.8-5.4,7.3-5.5c2.9,0,5.9,0.8,7.4,3.7L86.1,53.5z"/>
	<path fill="#ECF0F1" d="M92.3,67.7V48.9h3.5v18.7H92.3z"/>
	<path fill="#ECF0F1" d="M115.6,65.3c-1.9,1.9-4.4,2.8-7.1,2.8c-7,0-9.9-4.8-9.9-9.7c0-4.9,3.2-9.9,9.9-9.9c2.5,0,5,1,6.9,2.9
		l-2.4,2.3c-1.2-1.2-2.9-1.8-4.5-1.8c-4.5,0-6.5,3.4-6.5,6.5c0,3.1,1.8,6.3,6.5,6.3c1.6,0,3.5-0.7,4.7-1.9L115.6,65.3z"/>
</g>
<g>
	<path fill="#ECF0F1" d="M40.3,73.7c-0.5-0.8-1.7-1.5-3.2-1.5c-1.9,0-2.8,0.8-2.8,1.8c0,1.2,1.4,1.5,3,1.7c2.8,0.3,5.4,1.1,5.4,4.2
		c0,3-2.6,4.2-5.6,4.2c-2.7,0-4.8-0.8-5.8-3.3l2.1-1.1c0.6,1.5,2.1,2.1,3.8,2.1c1.6,0,3.1-0.6,3.1-2c0-1.3-1.3-1.8-3.1-2
		c-2.7-0.3-5.2-1-5.2-4c0-2.7,2.7-3.9,5.2-3.9c2.1,0,4.2,0.6,5.2,2.6L40.3,73.7z"/>
	<path fill="#ECF0F1" d="M56.3,70.5v7.6c0,3.9-2.4,6-5.8,6c-3.2,0-5.9-1.9-5.9-6v-7.6h2.5v7.6c0,2.4,1.4,3.7,3.4,3.7
		c2.1,0,3.3-1.4,3.3-3.7v-7.6H56.3z"/>
	<path fill="#ECF0F1" d="M70.4,74.1L66,79.9h-0.5l-4.2-5.8v9.7h-2.5V70.5h2.9l4.2,5.7l4.2-5.7h2.9v13.3h-2.5V74.1z"/>
	<path fill="#ECF0F1" d="M86.9,74.1l-4.3,5.8H82l-4.2-5.8v9.7h-2.5V70.5h2.9l4.2,5.7l4.2-5.7h2.9v13.3h-2.5V74.1z"/>
	<path fill="#ECF0F1" d="M101.7,83.8h-10c0-4.4,0-8.9,0-13.3h10v2.4h-7.5V76h7.2v2.3h-7.2v3h7.5V83.8z"/>
	<path fill="#ECF0F1" d="M115.4,83.8h-3l-3.9-4.5h-2.4v4.5h-2.5V70.4c2.1,0,4.2,0,6.3,0c3.1,0,4.8,2.1,4.8,4.4
		c0,1.8-0.8,3.7-3.4,4.2l4,4.6V83.8z M106.1,72.8v4.3h3.8c1.6,0,2.3-1.1,2.3-2.1s-0.7-2.1-2.3-2.1H106.1z"/>
</g>
<g>
	<path fill="#ECF0F1" d="M88.8,89.9c0-1.4,1.4-1.9,2.6-1.9c1.2,0,2.6,0.5,2.6,2c0,1.4-1.4,1.9-2.6,1.9c-1,0-2.1,0.2-2.1,1.4v1H94
		v0.5h-5.2v-1.5c0-1.5,1.4-1.9,2.6-1.9c0.9,0,2.1-0.3,2.1-1.5c0-1.2-1.2-1.5-2.1-1.5c-0.9,0-2.1,0.3-2.1,1.4H88.8z"/>
	<path fill="#ECF0F1" d="M96.9,90.7c0-3.6,5.2-3.5,5.2,0v1.6c0,3.5-5.2,3.6-5.2,0V90.7z M97.4,92.3c0,2.9,4.2,2.9,4.2,0v-1.6
		c0-2.9-4.2-2.9-4.2,0V92.3z"/>
	<path fill="#ECF0F1" d="M104.4,94.4h1.1v-5.9h-1.1v-0.5h1.7v6.3h1.1v0.5h-2.8V94.4z"/>
	<path fill="#ECF0F1" d="M114.3,88.1v4.7h0.9v0.5h-0.9v1.5h-0.5v-1.5h-4.2l-0.1-0.6l3.9-4.6H114.3z M113.8,88.5l-3.7,4.3h3.7V88.5z"
		/>
</g>
</svg>
