<?xml version="1.0" encoding="utf-8"?>
<!-- Generator: Adobe Illustrator 18.0.0, SVG Export Plug-In . SVG Version: 6.00 Build 0)  -->
<!DOCTYPE svg PUBLIC "-//W3C//DTD SVG 1.1//EN" "http://www.w3.org/Graphics/SVG/1.1/DTD/svg11.dtd">
<svg version="1.1" id="Layer_1" xmlns="http://www.w3.org/2000/svg" xmlns:xlink="http://www.w3.org/1999/xlink" x="0px" y="0px"
	 viewBox="0 0 168.5 164.9" enable-background="new 0 0 168.5 164.9" xml:space="preserve">
<g>
	<path fill="#BE3B30" d="M123.4,0L43,0C-2.5-0.6,0,41.7,0,41.7v123.1l43-41h86.5c23.4-1.2,39.5-19.8,39-42.9V70L123.4,0z"/>
	<path fill="#9A2D27" d="M137.7,22.3c-1,7.3-3.1,14.5-6.9,21.4c-0.3,0.5-0.7,1.1-1.1,1.6c0.5,1.1,1.1,2.2,1.8,3.1
		c1,1.2,1.2,2.9,0,4.1c-0.2,0.2-0.4,0.3-0.6,0.5l32.2,50c3.5-6.4,5.4-13.9,5.2-22.1V70L137.7,22.3z"/>
	<path fill="#E44E41" d="M162.3,70l6.1,0L123.5-0.1l-0.1,27C122.9,50.1,139,68.7,162.3,70z"/>
	<polygon fill="#B5352E" points="0,54.9 0,164.9 43,123.9 43.5,123.9 	"/>
</g>
<g>
	<path fill="#9A2D27" d="M33.1,31.1V45h8.4v1.1h-9.6v-15H33.1z"/>
	<path fill="#9A2D27" d="M55.6,46.1L54,42.4h-9l-1.6,3.7h-1.2l6.7-15h1.3l6.7,15H55.6z M53.5,41.3l-4-9.1l-4,9.1H53.5z"/>
	<path fill="#9A2D27" d="M60.6,32.1h-5.4v-1h12v1h-5.4v13.9h-1.2V32.1z"/>
	<path fill="#9A2D27" d="M82.5,31.1l-6.2,15h-1.2l-6.2-15h1.2l5.5,13.7l5.5-13.7H82.5z"/>
	<path fill="#9A2D27" d="M84.5,46.1v-15h1.1v15H84.5z"/>
	<path fill="#9A2D27" d="M100.9,46.1l-1.6-3.7h-9l-1.6,3.7h-1.2l6.7-15h1.3l6.7,15H100.9z M98.8,41.3l-4-9.1l-4,9.1H98.8z"/>
	<path fill="#9A2D27" d="M104.6,31.1l10.1,12.4V31.1h1.1v15h-0.5l-10.1-12.4v12.4h-1.2v-15H104.6z"/>
</g>
<g>
	<path fill="#9A2D27" d="M48.6,55.6l-6.1,8.1h-0.7l-6-8.2v13.6h-3.5V50.4h4.1l5.9,8.1l5.9-8.1h4v18.7h-3.5V55.6z"/>
	<path fill="#9A2D27" d="M71.9,50.4v10.7c0,5.5-3.4,8.4-8.1,8.4c-4.5,0-8.3-2.7-8.3-8.4V50.4H59v10.7c0,3.4,1.9,5.2,4.8,5.2
		c2.9,0,4.6-2,4.6-5.2V50.4H71.9z"/>
	<path fill="#9A2D27" d="M86.9,54.9c-0.6-1.1-2.4-2.1-4.4-2.1c-2.6,0-3.9,1.1-3.9,2.5c0,1.6,1.9,2.1,4.2,2.4c3.9,0.5,7.6,1.5,7.6,6
		c0,4.2-3.7,6-7.9,6c-3.8,0-6.8-1.2-8.2-4.6l2.9-1.5c0.8,2.1,3,3,5.3,3c2.2,0,4.3-0.8,4.3-2.8c0-1.8-1.8-2.5-4.3-2.8
		c-3.8-0.5-7.4-1.5-7.4-5.7c0-3.9,3.8-5.4,7.3-5.5c2.9,0,5.9,0.8,7.4,3.7L86.9,54.9z"/>
	<path fill="#9A2D27" d="M93.1,69.1V50.4h3.5v18.7H93.1z"/>
	<path fill="#9A2D27" d="M116.4,66.8c-1.9,1.9-4.4,2.8-7.1,2.8c-7,0-9.9-4.8-9.9-9.7c0-4.9,3.2-9.9,9.9-9.9c2.5,0,5,1,6.9,2.9
		l-2.4,2.3c-1.2-1.2-2.9-1.8-4.5-1.8c-4.5,0-6.5,3.4-6.5,6.5c0,3.1,1.8,6.3,6.5,6.3c1.6,0,3.5-0.7,4.7-1.9L116.4,66.8z"/>
</g>
<g>
	<path fill="#9A2D27" d="M41.1,75.1c-0.5-0.8-1.7-1.5-3.2-1.5c-1.9,0-2.8,0.8-2.8,1.8c0,1.2,1.4,1.5,3,1.7c2.8,0.3,5.4,1.1,5.4,4.2
		c0,3-2.6,4.2-5.6,4.2c-2.7,0-4.8-0.8-5.8-3.3l2.1-1.1c0.6,1.5,2.1,2.1,3.7,2.1c1.6,0,3.1-0.6,3.1-2c0-1.3-1.3-1.8-3.1-2
		c-2.7-0.3-5.2-1-5.2-4c0-2.7,2.7-3.9,5.2-3.9c2.1,0,4.2,0.6,5.2,2.6L41.1,75.1z"/>
	<path fill="#9A2D27" d="M57.1,71.9v7.6c0,3.9-2.4,6-5.8,6c-3.2,0-5.9-1.9-5.9-6v-7.6H48v7.6c0,2.4,1.4,3.7,3.4,3.7s3.3-1.4,3.3-3.7
		v-7.6H57.1z"/>
	<path fill="#9A2D27" d="M71.2,75.6l-4.3,5.8h-0.5l-4.2-5.8v9.7h-2.5V71.9h2.9l4.2,5.7l4.2-5.7h2.9v13.3h-2.5V75.6z"/>
	<path fill="#9A2D27" d="M87.7,75.6l-4.3,5.8h-0.5l-4.2-5.8v9.7h-2.5V71.9H79l4.2,5.7l4.2-5.7h2.9v13.3h-2.5V75.6z"/>
	<path fill="#9A2D27" d="M102.5,85.2h-10c0-4.4,0-8.9,0-13.3h10v2.4H95v3.1h7.2v2.3H95v3h7.5V85.2z"/>
	<path fill="#9A2D27" d="M116.2,85.2h-3l-3.9-4.5H107v4.5h-2.5V71.9c2.1,0,4.2,0,6.3,0c3.1,0,4.8,2.1,4.8,4.4c0,1.8-0.8,3.7-3.4,4.2
		l4,4.5V85.2z M107,74.3v4.3h3.8c1.6,0,2.3-1.1,2.3-2.1s-0.7-2.1-2.3-2.1H107z"/>
</g>
<g>
	<path fill="#9A2D27" d="M88.7,90.2c0-1.4,1.4-1.9,2.6-1.9c1.2,0,2.6,0.5,2.6,2c0,1.4-1.4,1.9-2.6,1.9c-1,0-2.1,0.2-2.1,1.4v1h4.7
		v0.5h-5.2v-1.5c0-1.5,1.4-1.9,2.6-1.9c0.9,0,2.1-0.3,2.1-1.5c0-1.2-1.2-1.5-2.1-1.5c-0.9,0-2.1,0.3-2.1,1.4H88.7z"/>
	<path fill="#9A2D27" d="M96.8,90.9c0-3.6,5.2-3.5,5.2,0v1.6c0,3.5-5.2,3.6-5.2,0V90.9z M97.3,92.5c0,2.9,4.2,2.9,4.2,0v-1.6
		c0-2.9-4.2-2.9-4.2,0V92.5z"/>
	<path fill="#9A2D27" d="M104.4,94.7h1.1v-5.9h-1.1v-0.5h1.7v6.3h1.1v0.5h-2.8V94.7z"/>
	<path fill="#9A2D27" d="M114.2,88.4v4.7h0.9v0.5h-0.9v1.5h-0.5v-1.5h-4.2l-0.1-0.6l3.9-4.6H114.2z M113.7,88.7l-3.7,4.3h3.7V88.7z"
		/>
</g>
<g>
	<path fill="#ECF0F1" d="M32.2,30.4v13.9h8.4v1.1h-9.6v-15H32.2z"/>
	<path fill="#ECF0F1" d="M54.8,45.4l-1.6-3.7h-9l-1.6,3.7h-1.2l6.7-15h1.3l6.7,15H54.8z M52.7,40.6l-4-9.1l-4,9.1H52.7z"/>
	<path fill="#ECF0F1" d="M59.8,31.4h-5.4v-1h12v1h-5.4v14h-1.2V31.4z"/>
	<path fill="#ECF0F1" d="M81.7,30.4l-6.2,15h-1.2l-6.2-15h1.2l5.6,13.7l5.5-13.7H81.7z"/>
	<path fill="#ECF0F1" d="M83.7,45.4v-15h1.1v15H83.7z"/>
	<path fill="#ECF0F1" d="M100,45.4l-1.7-3.7h-9l-1.6,3.7h-1.2l6.7-15h1.3l6.7,15H100z M97.9,40.6l-4-9.1l-4,9.1H97.9z"/>
	<path fill="#ECF0F1" d="M103.7,30.4l10.1,12.4V30.4h1.1v15h-0.5L104.4,33v12.4h-1.2v-15H103.7z"/>
</g>
<g>
	<path fill="#ECF0F1" d="M47.4,54l-6.1,8.1h-0.7l-6-8.2v13.6H31V48.8h4.1l5.9,8.1l5.9-8.1h4v18.7h-3.5V54z"/>
	<path fill="#ECF0F1" d="M70.6,48.8v10.7c0,5.5-3.4,8.4-8.1,8.4c-4.5,0-8.3-2.7-8.3-8.4V48.8h3.5v10.7c0,3.4,1.9,5.2,4.8,5.2
		c2.9,0,4.6-2,4.6-5.2V48.8H70.6z"/>
	<path fill="#ECF0F1" d="M85.7,53.3c-0.6-1.1-2.4-2.1-4.4-2.1c-2.6,0-3.9,1.1-3.9,2.5c0,1.6,1.9,2.1,4.2,2.4c3.9,0.5,7.6,1.5,7.6,6
		c0,4.2-3.7,6-7.9,6c-3.8,0-6.8-1.2-8.2-4.6l2.9-1.5c0.8,2.1,3,3,5.3,3c2.2,0,4.3-0.8,4.3-2.8c0-1.8-1.8-2.5-4.3-2.8
		c-3.8-0.5-7.4-1.5-7.4-5.7c0-3.9,3.8-5.4,7.3-5.5c2.9,0,5.9,0.8,7.4,3.7L85.7,53.3z"/>
	<path fill="#ECF0F1" d="M91.8,67.5V48.8h3.5v18.7H91.8z"/>
	<path fill="#ECF0F1" d="M115.2,65.2c-1.9,1.9-4.4,2.8-7.1,2.8c-7,0-9.9-4.8-9.9-9.7c0-4.9,3.2-9.9,9.9-9.9c2.5,0,5,1,6.9,2.9
		l-2.4,2.3c-1.2-1.2-2.9-1.8-4.5-1.8c-4.5,0-6.5,3.4-6.5,6.5c0,3.1,1.8,6.3,6.5,6.3c1.6,0,3.5-0.7,4.7-1.9L115.2,65.2z"/>
</g>
<g>
	<path fill="#ECF0F1" d="M39.8,73.5c-0.5-0.8-1.7-1.5-3.2-1.5c-1.9,0-2.8,0.8-2.8,1.8c0,1.2,1.4,1.5,3,1.7c2.8,0.3,5.4,1.1,5.4,4.2
		c0,3-2.6,4.2-5.6,4.2c-2.7,0-4.8-0.8-5.8-3.3l2.1-1.1c0.6,1.5,2.1,2.1,3.8,2.1c1.6,0,3.1-0.6,3.1-2c0-1.3-1.3-1.8-3.1-2
		c-2.7-0.3-5.2-1-5.2-4c0-2.7,2.7-3.9,5.2-3.9c2.1,0,4.2,0.6,5.2,2.6L39.8,73.5z"/>
	<path fill="#ECF0F1" d="M55.9,70.3V78c0,3.9-2.4,6-5.8,6c-3.2,0-5.9-1.9-5.9-6v-7.6h2.5V78c0,2.4,1.4,3.7,3.4,3.7
		c2.1,0,3.3-1.4,3.3-3.7v-7.6H55.9z"/>
	<path fill="#ECF0F1" d="M69.9,74l-4.3,5.8h-0.5L60.9,74v9.7h-2.5V70.3h2.9l4.2,5.7l4.2-5.7h2.9v13.3h-2.5V74z"/>
	<path fill="#ECF0F1" d="M86.4,74l-4.3,5.8h-0.5L77.3,74v9.7h-2.5V70.3h2.9l4.2,5.7l4.2-5.7h2.9v13.3h-2.5V74z"/>
	<path fill="#ECF0F1" d="M101.2,83.7h-10c0-4.4,0-8.9,0-13.3h10v2.4h-7.5v3.1h7.2v2.3h-7.2v3h7.5V83.7z"/>
	<path fill="#ECF0F1" d="M115,83.7h-3l-3.9-4.5h-2.4v4.5h-2.5V70.3c2.1,0,4.2,0,6.3,0c3.1,0,4.8,2.1,4.8,4.4c0,1.8-0.8,3.7-3.4,4.2
		l4,4.6V83.7z M105.7,72.7v4.3h3.8c1.6,0,2.3-1.1,2.3-2.1c0-1.1-0.7-2.1-2.3-2.1H105.7z"/>
</g>
<g>
	<path fill="#ECF0F1" d="M88.4,89.9c0-1.4,1.4-1.9,2.6-1.9c1.2,0,2.6,0.5,2.6,2c0,1.4-1.4,1.9-2.6,1.9c-1,0-2.1,0.2-2.1,1.4v1h4.7
		v0.5h-5.2v-1.5c0-1.5,1.4-1.9,2.6-1.9c0.9,0,2.1-0.3,2.1-1.5c0-1.2-1.2-1.5-2.1-1.5c-0.9,0-2.1,0.3-2.1,1.4H88.4z"/>
	<path fill="#ECF0F1" d="M96.4,90.7c0-3.6,5.2-3.5,5.2,0v1.6c0,3.5-5.2,3.6-5.2,0V90.7z M96.9,92.3c0,2.9,4.2,2.9,4.2,0v-1.6
		c0-2.9-4.2-2.9-4.2,0V92.3z"/>
	<path fill="#ECF0F1" d="M104,94.4h1.1v-5.9H104v-0.5h1.7v6.3h1.1v0.5H104V94.4z"/>
	<path fill="#ECF0F1" d="M113.9,88.1v4.7h0.9v0.5h-0.9v1.5h-0.5v-1.5h-4.2l-0.1-0.6l3.9-4.6H113.9z M113.4,88.5l-3.7,4.3h3.7V88.5z"
		/>
</g>
</svg>
