<?xml version="1.0" encoding="utf-8"?>
<!-- Generator: Adobe Illustrator 18.0.0, SVG Export Plug-In . SVG Version: 6.00 Build 0)  -->
<!DOCTYPE svg PUBLIC "-//W3C//DTD SVG 1.1//EN" "http://www.w3.org/Graphics/SVG/1.1/DTD/svg11.dtd">
<svg version="1.1" id="Layer_1" xmlns="http://www.w3.org/2000/svg" xmlns:xlink="http://www.w3.org/1999/xlink" x="0px" y="0px"
	 viewBox="0 0 612 792" enable-background="new 0 0 612 792" xml:space="preserve">
<g>
	<path fill="#2EAC62" d="M448.5,96.4H156.3C-9.1,94.2,0,247.9,0,247.9v447.4l156.3-149h314.4c85-4.4,143.6-72,141.7-155.9v-39.6
		L448.5,96.4z"/>
	<path fill="#2A9553" d="M500.4,177.4c-3.6,26.9-11.3,52.7-25.1,77.8c-0.4,0.7-1.1,1.8-1.8,2.5c2.5,2.2,4.7,4.7,6.5,7.6
		c2.5,3.6,2.9,9.1,1.8,13.1c-1.1,4-3.6,7.3-6.9,9.4l117.7,182.8c12.7-23.3,19.6-50.5,18.9-80.3v-39.6L500.4,177.4z"/>
	<path fill="#53B972" d="M589.8,350.8H612L448.8,96l-0.4,98.1C446.6,278.4,505.2,346,589.8,350.8z"/>
	<polygon fill="#2BA25A" points="0,295.9 0,695.6 156.3,546.6 158.1,546.6 	"/>
</g>
</svg>
