<?xml version="1.0" encoding="utf-8"?>
<!-- Generator: Adobe Illustrator 18.0.0, SVG Export Plug-In . SVG Version: 6.00 Build 0)  -->
<!DOCTYPE svg PUBLIC "-//W3C//DTD SVG 1.1//EN" "http://www.w3.org/Graphics/SVG/1.1/DTD/svg11.dtd">
<svg version="1.1" id="Layer_1" xmlns="http://www.w3.org/2000/svg" xmlns:xlink="http://www.w3.org/1999/xlink" x="0px" y="0px"
	 viewBox="0 0 172.8 280.8" enable-background="new 0 0 172.8 280.8" xml:space="preserve">
<g>
	<g>
		<path fill="#2b2d2f" d="M80.6,0.5c4.2,0,8.3,0,12.5,0c3.1,0.5,6.1,0.9,9.2,1.5c34.1,5.8,62.4,33.3,69,67.2c0.8,4,1.3,8,2,12c0,3.8,0,7.7,0,11.5
			c-0.4,2.7-0.8,5.5-1.2,8.2c-1.7,10.3-5.5,19.7-10.3,29c-9.6,18.8-18.8,37.9-28.2,56.9c-9.8,19.9-19.6,39.8-29.6,59.7
			c-4.6,9.1-9.2,18.2-14,27.3c-2,3.9-4.2,4-6.3,0.2c-3-5.4-5.8-10.8-8.5-16.3c-20.8-42-41.6-84-62.5-126c-4.5-9-8.7-17.9-10.5-27.9
			c-0.6-3.5-1.2-7-1.8-10.6c0-4.2,0-8.3,0-12.5C1,77.1,1.4,73.5,2.2,70C10.8,33.9,33,11.3,69.1,2.4C72.9,1.5,76.8,1.1,80.6,0.5z
			 M130.1,86.8c0-23.8-19.4-43.2-43.1-43.3c-23.7-0.1-43.3,19.3-43.4,42.8c0,24.2,19.2,43.7,43.1,43.8
			C110.7,130.1,130.1,110.7,130.1,86.8z"/>
	</g>
</g>
</svg>
