<?xml version="1.0" encoding="utf-8"?>
<!DOCTYPE svg PUBLIC "-//W3C//DTD SVG 1.1//EN" "http://www.w3.org/Graphics/SVG/1.1/DTD/svg11.dtd">
<svg version="1.1" id="Layer_1" xmlns="http://www.w3.org/2000/svg" xmlns:xlink="http://www.w3.org/1999/xlink" x="0px" y="0px"
	 viewBox="0 0 86 99" enable-background="new 0 0 86 99" xml:space="preserve">
<g>
	<g>
		<path fill="#2b2d2f" d="M1,83c5.7-10.3,14.4-13.5,26-10.4c0-15.3,0-30.2,0-45.2c0-1.8,0-3.7,0-5.5c0.1-4.3,1.8-7,6.5-8
			c14.6-3.3,29.1-7,43.6-10.5c7.5-1.8,8.9-0.9,9,6.9c0.2,14.2,0,28.3,0,42.5c0,4.5,0,9,0,13.5C86,74.7,81,80.4,72.4,81.9
			c-9,1.5-17.8-2.6-20.6-9.6c-3.2-8,3.3-16.8,13.4-18.1c2.8-0.4,6.8,0.8,8.1-0.6c2.1-2.3,0.7-6.3,0.7-9.6c0.1-6.2-0.1-12.3,0.1-18.5
			c0.1-3.2-0.7-4-3.8-3.2c-8.8,2.3-17.7,4.5-26.7,6.4c-2.9,0.6-3.6,1.8-3.6,4.7c0.1,15.5,0.2,31,0,46.5c-0.1,8.1-4.6,13.9-11.3,17.6
			c-6.7,3.8-13.7,3.1-20.5-0.8c-3.5-2-4.9-5.7-7.2-8.6C1,86.3,1,84.7,1,83z"/>
	</g>
</g>
</svg>
