<?xml version="1.0" encoding="utf-8"?>
<!DOCTYPE svg PUBLIC "-//W3C//DTD SVG 1.1//EN" "http://www.w3.org/Graphics/SVG/1.1/DTD/svg11.dtd">
<svg version="1.1" id="Layer_1" xmlns="http://www.w3.org/2000/svg" xmlns:xlink="http://www.w3.org/1999/xlink" x="0px" y="0px"
	 viewBox="0 0 200 318" enable-background="new 0 0 200 318" xml:space="preserve">
<g>
	<g>
		<path fill="#E54A3B" d="M1,295c0-90,0-180,0-270C2,16.3,5.8,9.5,13.5,5.1C18.4,2.3,23.8,2.2,29,1c4.7,0,9.3,0,14,0
			c6.9,1.1,13.9,1.6,19.8,6.4c6.9,5.8,10.8,12.9,11.6,21.8c0.1,0.8,0.1,1.7,0.1,2.5c0,85.6,0.1,171.1,0,256.7
			c0,14.9-11,28.2-24.8,30.1c-8.7,1.2-17.5,1.4-26.2-0.1c-8.1-1.4-14.2-5.6-18.9-12.2C2,302.9,2.3,298.7,1,295z"/>
		<path fill="#E54A3B" d="M158,1c4.7,0,9.3,0,14,0c4.7,1,9.6,0.8,14,2.9c10.8,5.1,15.7,13.8,15.5,25.6c-0.1,11,0,22,0,33
			c0,75.8,0,151.6,0,227.3c0,17.2-9.8,27.6-27,29.2c-6,0.5-11.9,0.5-17.9,0c-13.1-0.9-21.7-7.8-26.9-19.4c-2.1-4.5-2.1-9.4-2.1-14.2
			c0-55.3,0-110.6,0-165.9c0-29.1,0-58.3,0-87.4c0-11.4,5.1-20.1,14.3-26.5C146.7,2.1,152.5,2.3,158,1z"/>
	</g>
</g>
</svg>
