<?xml version="1.0" encoding="utf-8"?>
<!-- Generator: Adobe Illustrator 18.0.0, SVG Export Plug-In . SVG Version: 6.00 Build 0)  -->
<!DOCTYPE svg PUBLIC "-//W3C//DTD SVG 1.1//EN" "http://www.w3.org/Graphics/SVG/1.1/DTD/svg11.dtd">
<svg fill="#505356" version="1.1" id="Layer_1" xmlns="http://www.w3.org/2000/svg" xmlns:xlink="http://www.w3.org/1999/xlink" x="0px" y="0px"
	 viewBox="0 0 307.1 197.3" enable-background="new 0 0 307.1 197.3" xml:space="preserve">
<g>
	<path d="M0,117.1c0-12,0-24,0-36c1.2-1.2,0.9-2.8,0.9-4.3c0.2-15.2,1.3-30.3,3.2-45.3C6.2,15,18.5,3.1,35,2.4
		c19.8-0.9,39.6-1.8,59.4-2C153-0.3,211.6-0.4,270.2,2.3c19.2,0.9,31.5,12.3,33.7,31.4c2.9,25.2,3.4,50.5,3.2,75.8
		c-0.2,19.5-0.8,39-3.9,58.2c-2.5,15.6-15,26.4-30.7,27.1c-18.6,0.8-37.3,1.8-55.9,2c-60.6,0.6-121.2,1.1-181.8-1.9
		c-16-0.8-28.8-12.8-30.7-28.8c-1.7-13.9-2.7-27.8-3.2-41.8C0.8,121.9,1.8,119.3,0,117.1z M160.5,7.9C120.7,7.6,78.9,8,37.2,10
		c-14.6,0.7-23.8,8.7-25.4,23c-5,44-5,88,0.1,132c1.4,12.5,10.7,21.5,23.1,22.1c16.3,0.8,32.6,1.6,48.9,1.8
		c37.5,0.6,74.9,0.8,112.4,0.4c25-0.3,49.9-1,74.9-2.2c14.4-0.7,23.4-9.3,25-23.6c0.5-4.5,0.9-8.9,1.3-13.4
		c3-36.6,2.8-73.2-0.5-109.7c-0.4-4.6-0.9-9.3-2.3-13.8c-3-9.9-12-16-23.8-16.5C234.7,8.4,198.6,7.7,160.5,7.9z"/>
	<path d="M233.6,71.3c9.5,0,19-0.2,28.4,0.1c10.5,0.3,17.3,6.6,18.9,17c3.4,22.2,3.4,44.4,0,66.6c-1.6,10.1-8.5,16.4-18.5,16.9
		c-37.9,2-75.8,2.1-113.7,0c-10-0.5-17.1-7.1-18.5-17c-3.1-22.2-3.1-44.4,0-66.7c1.4-9.8,8.6-16.4,18.6-16.9
		C177,69.8,205.3,69.6,233.6,71.3z M218.2,107.5c0-6.2-0.2-11.7,0.1-17.1c0.2-3.6-1.1-4.4-4.5-4.5c-3.6,0-4.9,0.8-4.9,4.7
		c0.2,19.3,0.3,38.7,0,58c-0.1,5.1,1.6,6.5,6.2,5.8c1.4-0.2,3.1,0.4,3.2-2c0.1-2.4,1.2-1.1,2.2-0.5c9.6,5.9,15,3.2,15.5-8.2
		c0.4-9.8,0.1-19.6,0-29.5c0-1.6-0.3-3.3-0.8-4.9c-1.6-5.9-6.7-8.1-12-5.2C221.7,104.9,220.4,105.9,218.2,107.5z M191.5,150
		c-0.4,5.9,3.6,4.1,6.6,4.4c2.5,0.2,3.1-1,3.1-3.3c-0.1-14.8-0.1-29.6,0-44.4c0-3.7-2.1-3.5-4.5-3.4c-2.4,0.1-5.2-0.8-5,3.4
		c0.2,5.3,0,10.6,0,16c0,6,0.1,12,0,18c-0.1,3.3-2.3,5.4-5.4,5.4c-3.3,0-2.2-3.2-2.3-5.1c-0.1-11.1-0.1-22.3,0-33.5
		c0-2.8-0.6-4.1-3.8-4.3c-4.3-0.2-6.1,0.9-5.6,5.5c0.4,3.4,0.1,7,0.1,10.5c0,9.3-0.1,18.6,0,28c0.1,7.4,5,10.1,11.5,6.6
		C188,152.6,189.5,151.4,191.5,150z M243,128.8c0,4.3,0,8.6,0,13c0,1,0.3,2,0.6,2.9c1.7,6.8,7.4,10.9,14.4,10.3
		c7.1-0.6,11.8-5.4,12.4-12.6c0.4-4.3-0.6-6.3-5.5-6.1c-3.9,0.2-4.2,2-4.2,5c0,2.6-0.8,4.6-3.9,4.7c-3,0.1-4.1-2-4.4-4.4
		c-0.3-2.6-0.1-5.3-0.3-8c-0.2-2.4,0.9-3.2,3.2-3.2c4,0.1,8,0,12,0c2,0,3.2-0.5,3.1-2.8c-0.1-4.5,0.1-9-0.4-13.4
		c-0.8-6.7-5.9-11.2-12.4-11.5c-7.4-0.3-12.5,3.5-14.2,10.5C242.3,118.5,243,123.7,243,128.8z M152.1,125c0,8.3,0.2,16.6-0.1,24.9
		c-0.2,4.3,2,4.4,5.2,4.3c3-0.1,5.3,0.3,5.2-4.2c-0.3-15.1-0.1-30.3-0.1-45.4c0-8,0-8.2,7.8-8.5c4.3-0.2,3.1-3,3.2-5.2
		c0-2.3,0.9-5.1-3.3-5.1c-8.3,0.2-16.6,0-24.9,0.1c-1.2,0-2.6-0.4-3.3,1.4c-2,4.8,0.4,8.9,5.5,8.6c4-0.2,5.1,1.1,5,5
		C151.9,109,152.1,117,152.1,125z"/>
	<path d="M108.2,149.8c-2.7,1.6-4.7,3.2-6.9,4.1c-5.3,2.3-8.8,0.3-9.6-5.5c-1-7.4-0.4-15-0.5-22.4c-0.1-6.3,0.2-12.7-0.1-19
		c-0.1-3.7,2.1-3.4,4.5-3.4c2.4,0,4.6-0.2,4.5,3.5c-0.2,11-0.1,22,0,33c0,2.4-1.2,6.2,2.8,6.3c3.8,0,5.6-2.9,5.6-6.8
		c0-10.3,0.1-20.6-0.1-31c-0.1-3.5,0.7-5,4.6-5c4.1,0,4.5,1.8,4.5,5.2c-0.1,13.3,0,26.6-0.1,39.9c0,1.9,1.5,5.3-2.3,5.3
		C112.3,154,107.8,156.2,108.2,149.8z"/>
	<path d="M40,111.3c1.9-7.2,3.7-14.4,5.6-21.7c0.7-2.8,7.8-5,9.7-3c1,1,0.3,2.2-0.1,3.2c-1.6,5.4-2.9,11-4.9,16.2
		c-5.2,13.6-7.3,27.5-6.4,42.1c0.4,5.2-3.8,7.7-8.5,5.7c-1.2-0.5-1.2-1.4-1.2-2.4c0-1.8-0.2-3.7,0-5.5c1.4-15.8-1.7-30.8-7.5-45.3
		c-1-2.6-2.1-5.3-2.6-8c-0.4-2-4-4.5-0.4-6.2c4.3-2,8.4,0.1,9.5,4.2c1.9,6.9,3.8,13.7,5.6,20.6C39.2,111.3,39.6,111.3,40,111.3z"/>
	<path d="M57.2,128.9c0-4.5-0.3-9,0.1-13.4c0.6-7.5,5.6-12.1,12.6-12.2c7.2-0.2,12.3,3.9,13.2,11.4c1.1,9.6,1.1,19.2,0,28.8
		c-0.8,7.1-6.2,11.5-12.9,11.4c-6.9-0.1-12-4.8-12.9-12c-0.1-0.8-0.2-1.7-0.2-2.5c0-3.8,0-7.6,0-11.5
		C57.1,128.9,57.1,128.9,57.2,128.9z M65.8,129.1c0,3.8,0,7.7,0,11.5c0,2.8,0.6,5.5,4,5.9c3.6,0.4,4.5-2.4,4.7-5.1
		c0.6-8.3,0.5-16.6,0-24.9c-0.2-2.8-1.3-5.5-4.8-5.2c-3.3,0.3-4,3.1-4,5.9C65.7,121.1,65.8,125.1,65.8,129.1z"/>
	<path d="M97.1,37.4c-1.4,4.1-2.8,8.1-4.1,12.2c-0.5,1.6-1.1,2.7-3,2.6c-1.6-0.1-2.3-1-2.7-2.4c-2-7-4.1-13.9-6.4-21.7
		c10.3,0.6,5,10.5,9.8,13.8c2.1-3.1,2.5-7.3,4-11c0.7-1.7,1.3-2.8,3.4-2.7c2,0.1,2.4,1.3,2.9,2.8c1.2,3.9,2.5,7.8,4.8,11.6
		c1.1-3.9,2.3-7.8,3.1-11.8c0.5-2.6,2-2.8,3.9-2.4c2.6,0.6,0.9,2.5,0.6,3.6c-1.5,5.6-3.2,11.2-4.8,16.7c-0.5,1.7-0.8,3.6-3.4,3.5
		c-2.2-0.1-2.6-1.6-3.1-3.2c-1.2-3.9-2.5-7.8-3.8-11.7C97.9,37.4,97.5,37.4,97.1,37.4z"/>
	<path d="M190.5,40c0-0.7-0.2-1.4,0-2c0.9-3.2-2.5-8,2.1-9.5c7-2.2,16.2,1.4,18.5,6.4c2.2,4.7,1.1,10.9-2.8,14.1
		c-4.8,4-10.6,3.2-16.2,3.1c-1.9-0.1-1.7-1.8-1.7-3.1C190.4,46,190.5,43,190.5,40z M195.5,39.5c0,7.9,0,7.9,3.2,8
		c5,0.1,8.3-2.6,8.4-7.1c0.1-4.3-3.2-7.3-8.2-7.4C193,32.9,196.6,37.6,195.5,39.5z"/>
	<path d="M238.3,52.2c-8.7-0.1-7.8,0.9-7.9-7.3c0-4.5,0.1-9,0-13.5c0-2.3,0.8-3.3,3.2-3.2c3.3,0.2,6.7-0.3,9.9,0.7
		c4.5,1.5,5.6,4.7,2.8,8.9c-0.9,1.3-1.6,1.9,0.1,3c2.6,1.7,3,4.4,2,7.1c-1,2.8-3.6,3.7-6.4,3.9C240.6,52.1,239.1,52.2,238.3,52.2z
		 M237.7,48.3c3.2-0.3,5.9-0.2,6.1-2.9c0.2-2.9-2.6-2.9-4.7-3.1c-2-0.2-3.6,0.2-3.6,2.8C235.5,47.5,236.4,48.5,237.7,48.3z
		 M238.3,38.4c2.2,0.1,4.3-0.6,4.4-2.9c0.2-2.7-2.3-2.6-4.3-2.8c-2.5-0.3-2.9,1.2-3.2,3.2C234.9,38.6,236.7,38.3,238.3,38.4z"/>
	<path d="M64.8,28c7.6,0.1,12.7,5.1,12.6,12.4c-0.1,7.4-5.7,12.7-13.3,12.5c-7.4-0.2-12.3-5.4-12.2-12.8C52,32.6,57,27.9,64.8,28z
		 M72.2,40.5c0.1-4.5-2.8-7.7-7.2-7.9c-4.6-0.2-8,3-8.1,7.5c-0.1,4.6,3.2,8,7.7,8C68.9,48.1,72.1,44.9,72.2,40.5z"/>
	<path d="M160.9,51.7c-3.8,1.6-5.9-0.1-7.3-3.5c-0.5-1.4-1.3-2.7-2.1-4c-0.5-0.9-1.2-1.6-2.4-1.4c-1.3,0.2-1.3,1.3-1.3,2.3
		c0,1.5-0.1,3,0,4.5c0,1.6-0.5,2.5-2.3,2.5c-1.6,0-2.5-0.5-2.5-2.3c0-6.5,0-13,0-19.4c0-1.4,0.7-2.1,2.1-2.1c3.8,0,7.7-0.4,11.4,0.9
		c4.7,1.7,6.4,7.8,2.5,10.8c-3.4,2.6-2.1,4.3-0.5,6.7C159.5,48.3,160.8,49.7,160.9,51.7z M150.5,32.6c-1.4-0.2-2.6,0.4-2.7,2.9
		c0,2.7,1.4,2.8,3.4,2.8c2.1,0,4.3-0.3,4.3-2.9C155.6,32.8,153.2,32.8,150.5,32.6z"/>
	<path d="M167.2,40c0-12.4,0-12.4,12.5-11.7c1.7,0.1,3.4-0.1,3.3,2.4c-0.1,2.6-1.9,2.2-3.5,2.3c-1.7,0-3.3,0-5,0
		c-1.7,0-2.4,0.8-2.4,2.4c0,1.6,0.8,2.4,2.4,2.5c2,0,4,0.1,6,0.1c1.3,0,2.2,0.5,2.2,2c0,1.5-0.8,2.1-2.1,2.1c-2,0-4,0.1-6,0.1
		c-2,0-2.5,1.1-2.5,2.9c0,1.7,0.9,2.4,2.5,2.4c2.2,0,4.3,0,6.5,0.1c1.6,0,2.9,0.2,2.8,2.4c-0.1,1.9-1.2,2.1-2.6,2.1
		c-0.5,0-1,0-1.5,0C167.2,52.6,167.2,52.6,167.2,40z"/>
	<path d="M29.5,40c0-1-0.1-2,0-3c0.4-2.8-1.6-7.3,1.2-8.2c4.4-1.4,9.6-1.3,13.9,1.3c2.9,1.8,2.6,4.8,2.2,7.6
		c-0.5,3.4-3.3,4.9-6.1,4.8c-5.2-0.2-7.2,1.6-6.4,6.7c0.3,1.6-0.3,2.9-2.4,2.9c-2,0-2.6-1-2.5-2.8C29.5,46.3,29.5,43.1,29.5,40
		C29.5,40,29.5,40,29.5,40z M37.3,38.6c2.7-0.2,4.8-0.5,4.6-3.2c-0.2-2.7-2.6-2.5-4.6-2.7c-2.2-0.2-2.8,1-2.8,3
		C34.5,38.2,35.8,38.8,37.3,38.6z"/>
	<path d="M119.9,40.4c0-12.5,0-12.5,12.3-12c1.5,0.1,3.5-0.8,3.6,2.1c0.1,3-1.8,2.6-3.6,2.6c-1.7,0-3.3,0.1-5,0
		c-1.7,0-2.4,0.7-2.4,2.4c0,1.6,0.6,2.5,2.3,2.5c1.7,0,3.3,0,5,0.1c1.4,0,2.7,0.1,2.8,2c0.1,1.9-1.2,2.1-2.6,2.2c-1.7,0-3.3,0.1-5,0
		c-2,0-2.5,1.2-2.5,2.9c0,1.7,0.7,2.5,2.4,2.4c1.7,0,3.3,0,5,0.1c1.7,0.1,3.9-0.6,3.9,2.4c0,2.8-2.1,2-3.6,2.1
		C119.9,52.8,119.9,52.8,119.9,40.4z"/>
	<path d="M252,28.8c3.8-1.2,6.1-0.4,7.9,3.1c2.9,5.7,3.3,5.7,6.5-0.1c1.7-3,3.7-4.4,7.6-2.8c-1.6,2.4-2.9,4.9-4.6,7.1
		c-2.8,3.7-4.7,7.5-4,12.4c0.2,1.7,0.5,3.8-2.4,3.8c-2.9,0-2.8-2.1-2.5-3.8c1.1-5.9-2.4-10.1-5.3-14.5
		C254.2,32.3,253.2,30.6,252,28.8z"/>
	<path d="M218.2,128.8c0-4.3,0.1-8.7,0-13c-0.1-2.9,1.7-3.9,3.9-4.3c2.4-0.5,3.9,1.2,4.1,3.4c0.7,9.3,0.7,18.6,0,27.9
		c-0.2,2.3-1.5,3.7-4.1,3.3c-2.5-0.4-3.9-1.6-3.8-4.3C218.3,137.5,218.2,133.1,218.2,128.8z"/>
	<path d="M256.4,122.7c-3.7,0.8-4.5-0.9-4.2-4c0.3-3.2,0.3-7.1,4.4-7.2c4.7-0.1,4.1,4.2,4.5,7.4
		C261.6,122.9,259.3,123.4,256.4,122.7z"/>
</g>
</svg>
