<?xml version="1.0" encoding="utf-8"?>
<!-- Generator: Adobe Illustrator 18.0.0, SVG Export Plug-In . SVG Version: 6.00 Build 0)  -->
<!DOCTYPE svg PUBLIC "-//W3C//DTD SVG 1.1//EN" "http://www.w3.org/Graphics/SVG/1.1/DTD/svg11.dtd">
<svg version="1.1" id="Layer_1" xmlns="http://www.w3.org/2000/svg" xmlns:xlink="http://www.w3.org/1999/xlink" x="0px" y="0px"
	 viewBox="0 0 724 806.5" enable-background="new 0 0 724 806.5" xml:space="preserve">
<g>
	<path fill="#2b2d2f" d="M0,390.8c1.3-6.2,2.3-12.5,4-18.6c13.7-49.9,45.4-82.7,95.7-95.1c46.9-11.5,88.2,1,122.9,34.7c2.5,2.4,4,1.8,6.3,0.4
		c56.9-32.9,113.9-65.7,170.8-98.6c22.5-13,45-26,67.6-38.9c2.5-1.4,3.7-2.6,2.7-6C447.1,94.2,492,18.6,568.2,2.7
		C639.6-12.3,711,36.9,722,108.4c6.7,43.3-5.1,80.9-35,112.5c-20.6,21.7-46.3,34.5-76.2,38.1c-43.6,5.2-80.8-8.3-111.5-39.6
		c-2.2-2.2-3.5-1.8-5.7-0.6c-79.3,45.8-158.6,91.6-237.9,137.3c-2.6,1.5-3.1,2.8-2.2,5.9c9.5,29.6,9,59-2.1,88.1
		c-1.2,3.2-0.3,4.4,2.3,6c38.8,22.3,77.5,44.6,116.2,67c39.9,23,79.7,46,119.6,69.1c2.5,1.5,3.8,1.8,6.1-0.8
		c21.3-24.4,47.9-39.5,80.2-43.6c44.5-5.7,82.7,7.7,113.4,40.3c25.1,26.7,36.6,59.1,34.5,95.5c-3.5,61.4-48,110.8-108.3,121.1
		c-69.5,11.8-136.3-34.6-149.3-103.3c-3.7-19.5-3.1-39,2-58.3c0.7-2.7,0.3-3.8-1.9-5.1c-80.8-46.5-161.5-93.1-242.2-139.7
		c-2.1-1.2-3.3-1.6-5.5,0.4c-27,24.4-58.7,35.9-95.1,34.4c-58.7-2.5-109-45.9-120.7-103.9c-0.9-4.4-0.7-9.1-2.8-13.3
		C0,407.5,0,399.2,0,390.8z"/>
</g>
</svg>
